2.2Hzlow_3min_grf.mot
version=1
nRows=10
nColumns 19
inDegrees=yes
endheader
time	1_ground_force_vx	1_ground_force_vy	1_ground_force_vz	1_ground_force_px	1_ground_force_py	1_ground_force_pz	1_ground_torque_x	1_ground_torque_y	1_ground_torque_z	2_ground_force_vx	2_ground_force_vy	2_ground_force_vz	2_ground_force_px	2_ground_force_py	2_ground_force_pz	2_ground_torque_x	2_ground_torque_y	2_ground_torque_z
            2.495000	            0.138113	            0.539644	            0.277113	           -0.233013	            0.005581	           -0.255695	            0.213285	            0.046170	            0.043110	           -6.350779	           -2.337224	           29.277961	           -0.232311	            0.006130	           -0.833667	            1.246977	           -7.253045	           -0.648479
            2.495500	            0.091635	            0.901149	            0.049493	           -0.233013	            0.005581	           -0.255695	            0.166380	           -0.018330	           -0.015412	           -6.255085	           -2.889331	           29.275950	           -0.232311	            0.006130	           -0.833667	            1.303400	           -7.262563	           -0.573136
            2.496000	            0.091360	            0.541208	           -0.089620	           -0.233013	            0.005581	           -0.255695	            0.172448	           -0.110687	           -0.034609	           -6.114515	           -2.888991	           29.322819	           -0.232311	            0.006130	           -0.833667	            1.303546	           -7.309625	           -0.629855
            2.496500	            0.091489	            1.081612	            0.004410	           -0.233013	            0.005581	           -0.255695	            0.111881	           -0.147669	           -0.034636	           -6.303991	           -2.336553	           29.137157	           -0.232311	            0.006130	           -0.833667	            1.341065	           -7.290719	           -0.592103
            2.497000	           -0.091752	            0.360514	            0.001773	           -0.233013	            0.005581	           -0.255695	            0.187491	           -0.064710	           -0.004665	           -6.296015	           -4.546333	           29.129272	           -0.232311	            0.006130	           -0.833667	            1.284633	           -7.281133	           -0.686297
            2.497500	            0.137934	            0.900372	            0.232803	           -0.233013	            0.005581	           -0.255695	            0.158559	            0.009426	           -0.013319	           -6.163400	           -2.336380	           29.230953	           -0.232311	            0.006130	           -0.833667	            1.322135	           -7.252908	           -0.610811
            2.498000	           -0.000213	            0.540994	           -0.043537	           -0.233013	            0.005581	           -0.255695	            0.151772	            0.064732	           -0.000119	           -6.116529	           -2.336379	           29.277862	           -0.232311	            0.006130	           -0.833667	            1.284752	           -7.309625	           -0.648698
            2.498500	           -0.183423	            0.901096	            0.050176	           -0.233013	            0.005581	           -0.255695	            0.147673	           -0.018621	            0.010501	           -6.301312	           -3.073314	           29.181457	           -0.232311	            0.006130	           -0.833667	            1.303300	           -7.252572	           -0.723904
            2.499000	           -0.000359	            0.721456	           -0.088620	           -0.233013	            0.005581	           -0.255695	            0.097589	           -0.009711	            0.112479	           -6.258491	           -1.967920	           29.091523	           -0.232311	            0.006130	           -0.833667	            1.190766	           -7.300310	           -0.705175
            2.499500	            0.137529	            0.000027	           -0.000341	           -0.233013	            0.005581	           -0.255695	            0.112899	           -0.101995	            0.099137	           -6.258511	           -1.967753	           29.044595	           -0.232311	            0.006130	           -0.833667	            1.303434	           -7.272016	           -0.573170
